<?xml version="1.0" encoding="UTF-8"?>
<svg xmlns="http://www.w3.org/2000/svg" xmlns:xlink="http://www.w3.org/1999/xlink" width="600" height="450" viewBox="0 0 600 450">
<defs>
<g>
<g id="glyph-0-0-679d20ac">
<path d="M 11.921875 -9.375 C 11.921875 -9.484375 11.875 -9.5625 11.75 -9.5625 C 11.3125 -9.5625 10.84375 -9.515625 10.40625 -9.515625 C 9.953125 -9.515625 9.484375 -9.5625 9.046875 -9.5625 C 8.96875 -9.5625 8.796875 -9.5625 8.796875 -9.296875 C 8.796875 -9.140625 8.921875 -9.125 9.046875 -9.125 C 9.765625 -9.09375 9.890625 -8.8125 9.890625 -8.53125 C 9.890625 -8.40625 9.859375 -8.296875 9.828125 -8.1875 L 8.28125 -2.046875 L 5.671875 -9.328125 C 5.59375 -9.546875 5.578125 -9.5625 5.28125 -9.5625 L 3.53125 -9.5625 C 3.296875 -9.5625 3.15625 -9.5625 3.15625 -9.296875 C 3.15625 -9.125 3.265625 -9.125 3.53125 -9.125 C 3.625 -9.125 4.375 -9.125 4.375 -9.015625 C 4.375 -9.015625 4.375 -8.96875 4.34375 -8.828125 L 2.484375 -1.40625 C 2.296875 -0.640625 1.78125 -0.46875 1.140625 -0.4375 C 1.015625 -0.4375 0.875 -0.421875 0.875 -0.171875 C 0.875 -0.046875 0.953125 0 1.046875 0 C 1.46875 0 1.953125 -0.046875 2.375 -0.046875 C 2.828125 -0.046875 3.3125 0 3.75 0 C 3.84375 0 4 0 4 -0.25 C 4 -0.421875 3.90625 -0.4375 3.734375 -0.4375 C 2.9375 -0.46875 2.90625 -0.828125 2.90625 -1.03125 C 2.90625 -1.078125 2.90625 -1.15625 2.96875 -1.390625 L 4.78125 -8.59375 L 7.78125 -0.234375 C 7.859375 -0.03125 7.875 0 8.0625 0 C 8.21875 0 8.28125 -0.015625 8.34375 -0.28125 L 10.296875 -8.171875 C 10.53125 -9.078125 11.3125 -9.109375 11.71875 -9.125 C 11.765625 -9.125 11.921875 -9.140625 11.921875 -9.375 Z M 11.921875 -9.375 "/>
</g>
<g id="glyph-0-1-679d20ac">
<path d="M 11.921875 -9.375 C 11.921875 -9.484375 11.875 -9.5625 11.75 -9.5625 C 11.328125 -9.5625 10.859375 -9.515625 10.4375 -9.515625 C 9.984375 -9.515625 9.515625 -9.5625 9.09375 -9.5625 C 9.015625 -9.5625 8.828125 -9.5625 8.828125 -9.296875 C 8.828125 -9.140625 8.953125 -9.125 9.09375 -9.125 C 9.8125 -9.09375 9.921875 -8.8125 9.921875 -8.53125 C 9.921875 -8.40625 9.890625 -8.296875 9.875 -8.1875 L 8.625 -3.203125 C 8.171875 -1.40625 6.6875 -0.125 5.375 -0.125 C 4.640625 -0.125 3.875 -0.609375 3.875 -1.875 C 3.875 -2.1875 3.953125 -2.625 4.015625 -2.9375 L 5.421875 -8.5625 C 5.53125 -9.015625 5.640625 -9.125 6.53125 -9.125 C 6.8125 -9.125 6.9375 -9.125 6.9375 -9.375 C 6.9375 -9.53125 6.84375 -9.5625 6.75 -9.5625 C 6.21875 -9.5625 5.640625 -9.515625 5.09375 -9.515625 C 4.53125 -9.515625 3.96875 -9.5625 3.421875 -9.5625 C 3.328125 -9.5625 3.15625 -9.5625 3.15625 -9.296875 C 3.15625 -9.125 3.265625 -9.125 3.53125 -9.125 C 3.96875 -9.125 4.34375 -9.125 4.34375 -8.890625 C 4.34375 -8.84375 4.34375 -8.8125 4.28125 -8.625 L 2.9375 -3.21875 C 2.828125 -2.765625 2.828125 -2.46875 2.828125 -2.328125 C 2.828125 -0.640625 4 0.3125 5.3125 0.3125 C 7.09375 0.3125 8.65625 -1.515625 9.03125 -3.046875 L 10.296875 -8.171875 C 10.53125 -9.078125 11.3125 -9.109375 11.71875 -9.125 C 11.765625 -9.125 11.921875 -9.140625 11.921875 -9.375 Z M 11.921875 -9.375 "/>
</g>
<g id="glyph-0-2-679d20ac">
<path d="M 4.984375 -2 C 4.984375 -2.140625 4.875 -2.140625 4.78125 -2.140625 C 4.609375 -2.140625 4.609375 -2.125 4.5 -1.875 C 4.234375 -1.203125 3.6875 -0.15625 2.890625 -0.15625 C 2.5 -0.15625 2.5 -0.5 2.5 -0.734375 C 2.5 -0.828125 2.5 -1.046875 2.609375 -1.4375 L 3.640625 -5.59375 L 4.828125 -5.59375 C 5.0625 -5.59375 5.21875 -5.59375 5.21875 -5.859375 C 5.21875 -6.03125 5.09375 -6.03125 4.875 -6.03125 L 3.75 -6.03125 L 4.265625 -8.109375 C 4.328125 -8.296875 4.328125 -8.328125 4.328125 -8.40625 C 4.328125 -8.6875 4.09375 -8.765625 3.953125 -8.765625 C 3.59375 -8.765625 3.453125 -8.46875 3.40625 -8.265625 L 2.859375 -6.03125 L 1.671875 -6.03125 C 1.421875 -6.03125 1.28125 -6.03125 1.28125 -5.765625 C 1.28125 -5.59375 1.40625 -5.59375 1.625 -5.59375 L 2.75 -5.59375 L 1.734375 -1.578125 C 1.71875 -1.53125 1.671875 -1.296875 1.671875 -1.109375 C 1.671875 -0.40625 2.125 0.15625 2.859375 0.15625 C 4.265625 0.15625 4.984375 -1.9375 4.984375 -2 Z M 4.984375 -2 "/>
</g>
<g id="glyph-1-0-679d20ac">
<path d="M 6.390625 -2.359375 C 6.390625 -2.859375 6.25 -3.484375 5.71875 -4.078125 C 5.453125 -4.375 5.21875 -4.515625 4.328125 -5.0625 C 5.328125 -5.59375 6.015625 -6.3125 6.015625 -7.234375 C 6.015625 -8.53125 4.78125 -9.328125 3.5 -9.328125 C 2.09375 -9.328125 0.96875 -8.28125 0.96875 -6.984375 C 0.96875 -6.734375 1 -6.109375 1.578125 -5.453125 C 1.734375 -5.28125 2.25 -4.921875 2.609375 -4.6875 C 1.796875 -4.28125 0.59375 -3.5 0.59375 -2.109375 C 0.59375 -0.625 2.015625 0.3125 3.484375 0.3125 C 5.0625 0.3125 6.390625 -0.859375 6.390625 -2.359375 Z M 5.40625 -7.234375 C 5.40625 -6.4375 4.859375 -5.765625 4.015625 -5.28125 L 2.28125 -6.390625 C 1.640625 -6.8125 1.578125 -7.296875 1.578125 -7.53125 C 1.578125 -8.390625 2.484375 -8.96875 3.484375 -8.96875 C 4.515625 -8.96875 5.40625 -8.25 5.40625 -7.234375 Z M 5.703125 -1.84375 C 5.703125 -0.8125 4.640625 -0.078125 3.5 -0.078125 C 2.296875 -0.078125 1.28125 -0.953125 1.28125 -2.109375 C 1.28125 -2.921875 1.734375 -3.828125 2.921875 -4.484375 L 4.640625 -3.390625 C 5.046875 -3.125 5.703125 -2.703125 5.703125 -1.84375 Z M 5.703125 -1.84375 "/>
</g>
<g id="glyph-1-1-679d20ac">
<path d="M 6.390625 -4.609375 C 6.390625 -8.375 4.78125 -9.328125 3.546875 -9.328125 C 2.765625 -9.328125 2.09375 -9.078125 1.484375 -8.4375 C 0.90625 -7.8125 0.59375 -7.21875 0.59375 -6.171875 C 0.59375 -4.421875 1.8125 -3.046875 3.390625 -3.046875 C 4.234375 -3.046875 4.8125 -3.640625 5.140625 -4.453125 L 5.140625 -4 C 5.140625 -0.734375 3.6875 -0.078125 2.875 -0.078125 C 2.625 -0.078125 1.875 -0.109375 1.5 -0.59375 C 2.109375 -0.59375 2.21875 -1 2.21875 -1.234375 C 2.21875 -1.671875 1.890625 -1.875 1.578125 -1.875 C 1.359375 -1.875 0.9375 -1.75 0.9375 -1.203125 C 0.9375 -0.265625 1.6875 0.3125 2.890625 0.3125 C 4.6875 0.3125 6.390625 -1.59375 6.390625 -4.609375 Z M 5.109375 -5.890625 C 5.109375 -4.734375 4.640625 -3.375 3.40625 -3.375 C 3.171875 -3.375 2.53125 -3.375 2.09375 -4.25 C 1.84375 -4.78125 1.84375 -5.46875 1.84375 -6.15625 C 1.84375 -6.921875 1.84375 -7.578125 2.140625 -8.09375 C 2.515625 -8.796875 3.046875 -8.96875 3.546875 -8.96875 C 4.1875 -8.96875 4.640625 -8.5 4.890625 -7.875 C 5.046875 -7.421875 5.109375 -6.53125 5.109375 -5.890625 Z M 5.109375 -5.890625 "/>
</g>
<g id="glyph-1-2-679d20ac">
<path d="M 5.859375 0 L 5.859375 -0.4375 L 5.421875 -0.4375 C 4.15625 -0.4375 4.109375 -0.59375 4.109375 -1.109375 L 4.109375 -8.953125 C 4.109375 -9.296875 4.109375 -9.328125 3.796875 -9.328125 C 2.921875 -8.421875 1.6875 -8.421875 1.25 -8.421875 L 1.25 -8 C 1.53125 -8 2.359375 -8 3.078125 -8.359375 L 3.078125 -1.109375 C 3.078125 -0.609375 3.03125 -0.4375 1.78125 -0.4375 L 1.328125 -0.4375 L 1.328125 0 C 1.8125 -0.046875 3.03125 -0.046875 3.59375 -0.046875 C 4.15625 -0.046875 5.375 -0.046875 5.859375 0 Z M 5.859375 0 "/>
</g>
<g id="glyph-1-3-679d20ac">
<path d="M 6.4375 -4.484375 C 6.4375 -5.59375 6.375 -6.71875 5.875 -7.75 C 5.234375 -9.09375 4.09375 -9.328125 3.5 -9.328125 C 2.65625 -9.328125 1.640625 -8.953125 1.0625 -7.65625 C 0.609375 -6.6875 0.546875 -5.59375 0.546875 -4.484375 C 0.546875 -3.4375 0.609375 -2.171875 1.171875 -1.109375 C 1.78125 0.03125 2.796875 0.3125 3.484375 0.3125 C 4.234375 0.3125 5.3125 0.015625 5.921875 -1.3125 C 6.375 -2.28125 6.4375 -3.375 6.4375 -4.484375 Z M 5.28125 -4.640625 C 5.28125 -3.59375 5.28125 -2.640625 5.125 -1.75 C 4.90625 -0.421875 4.109375 0 3.484375 0 C 2.9375 0 2.109375 -0.34375 1.859375 -1.6875 C 1.703125 -2.53125 1.703125 -3.828125 1.703125 -4.640625 C 1.703125 -5.546875 1.703125 -6.46875 1.8125 -7.21875 C 2.09375 -8.890625 3.140625 -9.015625 3.484375 -9.015625 C 3.953125 -9.015625 4.875 -8.765625 5.140625 -7.375 C 5.28125 -6.59375 5.28125 -5.53125 5.28125 -4.640625 Z M 5.28125 -4.640625 "/>
</g>
<g id="glyph-1-4-679d20ac">
<path d="M 6.28125 -2.4375 L 5.9375 -2.4375 C 5.859375 -2.015625 5.765625 -1.40625 5.625 -1.1875 C 5.53125 -1.078125 4.609375 -1.078125 4.296875 -1.078125 L 1.78125 -1.078125 L 3.265625 -2.515625 C 5.453125 -4.453125 6.28125 -5.203125 6.28125 -6.609375 C 6.28125 -8.203125 5.03125 -9.328125 3.3125 -9.328125 C 1.734375 -9.328125 0.703125 -8.03125 0.703125 -6.796875 C 0.703125 -6 1.40625 -6 1.4375 -6 C 1.6875 -6 2.171875 -6.171875 2.171875 -6.75 C 2.171875 -7.109375 1.921875 -7.46875 1.421875 -7.46875 C 1.3125 -7.46875 1.28125 -7.46875 1.25 -7.46875 C 1.5625 -8.375 2.328125 -8.890625 3.140625 -8.890625 C 4.40625 -8.890625 5.015625 -7.75 5.015625 -6.609375 C 5.015625 -5.484375 4.3125 -4.375 3.546875 -3.515625 L 0.859375 -0.515625 C 0.703125 -0.359375 0.703125 -0.34375 0.703125 0 L 5.890625 0 Z M 6.28125 -2.4375 "/>
</g>
<g id="glyph-1-5-679d20ac">
<path d="M 10.109375 -3.5 C 10.109375 -3.65625 9.984375 -3.78125 9.828125 -3.78125 L 1.0625 -3.78125 C 0.90625 -3.78125 0.78125 -3.65625 0.78125 -3.5 C 0.78125 -3.34375 0.90625 -3.21875 1.0625 -3.21875 L 9.828125 -3.21875 C 9.984375 -3.21875 10.109375 -3.34375 10.109375 -3.5 Z M 10.109375 -3.5 "/>
</g>
<g id="glyph-1-6-679d20ac">
<path d="M 2.6875 -0.734375 C 2.6875 -1.140625 2.359375 -1.484375 1.953125 -1.484375 C 1.546875 -1.484375 1.203125 -1.140625 1.203125 -0.734375 C 1.203125 -0.34375 1.546875 0 1.953125 0 C 2.359375 0 2.6875 -0.34375 2.6875 -0.734375 Z M 2.6875 -0.734375 "/>
</g>
<g id="glyph-1-7-679d20ac">
<path d="M 6.390625 -2.859375 C 6.390625 -4.640625 5.15625 -5.984375 3.59375 -5.984375 C 2.640625 -5.984375 2.125 -5.265625 1.84375 -4.59375 L 1.84375 -4.921875 C 1.84375 -8.46875 3.578125 -8.96875 4.296875 -8.96875 C 4.640625 -8.96875 5.21875 -8.890625 5.53125 -8.40625 C 5.3125 -8.40625 4.765625 -8.40625 4.765625 -7.78125 C 4.765625 -7.34375 5.09375 -7.140625 5.40625 -7.140625 C 5.625 -7.140625 6.046875 -7.265625 6.046875 -7.8125 C 6.046875 -8.65625 5.4375 -9.328125 4.265625 -9.328125 C 2.484375 -9.328125 0.59375 -7.515625 0.59375 -4.421875 C 0.59375 -0.6875 2.21875 0.3125 3.515625 0.3125 C 5.0625 0.3125 6.390625 -1.015625 6.390625 -2.859375 Z M 5.140625 -2.875 C 5.140625 -2.203125 5.140625 -1.5 4.90625 -1 C 4.484375 -0.15625 3.84375 -0.078125 3.515625 -0.078125 C 2.625 -0.078125 2.21875 -0.921875 2.125 -1.140625 C 1.875 -1.796875 1.875 -2.90625 1.875 -3.15625 C 1.875 -4.25 2.328125 -5.65625 3.578125 -5.65625 C 3.8125 -5.65625 4.453125 -5.65625 4.890625 -4.78125 C 5.140625 -4.265625 5.140625 -3.5625 5.140625 -2.875 Z M 5.140625 -2.875 "/>
</g>
<g id="glyph-1-8-679d20ac">
<path d="M 6.59375 -2.3125 L 6.59375 -2.75 L 5.1875 -2.75 L 5.1875 -9.109375 C 5.1875 -9.390625 5.1875 -9.484375 4.96875 -9.484375 C 4.84375 -9.484375 4.796875 -9.484375 4.6875 -9.3125 L 0.390625 -2.75 L 0.390625 -2.3125 L 4.109375 -2.3125 L 4.109375 -1.09375 C 4.109375 -0.59375 4.09375 -0.4375 3.046875 -0.4375 L 2.765625 -0.4375 L 2.765625 0 C 3.328125 -0.046875 4.0625 -0.046875 4.640625 -0.046875 C 5.234375 -0.046875 5.984375 -0.046875 6.546875 0 L 6.546875 -0.4375 L 6.265625 -0.4375 C 5.21875 -0.4375 5.1875 -0.59375 5.1875 -1.09375 L 5.1875 -2.3125 Z M 4.203125 -2.75 L 0.78125 -2.75 L 4.203125 -7.96875 Z M 4.203125 -2.75 "/>
</g>
<g id="glyph-1-9-679d20ac">
<path d="M 6.234375 -10.21875 C 6.234375 -10.375 6.109375 -10.5 5.953125 -10.5 C 5.828125 -10.5 5.71875 -10.4375 5.6875 -10.3125 L 0.796875 3.125 C 0.78125 3.15625 0.78125 3.1875 0.78125 3.21875 C 0.78125 3.375 0.90625 3.5 1.0625 3.5 C 1.1875 3.5 1.28125 3.4375 1.328125 3.3125 L 6.21875 -10.125 C 6.234375 -10.15625 6.234375 -10.1875 6.234375 -10.21875 Z M 6.234375 -10.21875 "/>
</g>
<g id="glyph-1-10-679d20ac">
<path d="M 10.109375 -4.859375 C 10.109375 -5.015625 9.984375 -5.140625 9.828125 -5.140625 L 1.0625 -5.140625 C 0.90625 -5.140625 0.78125 -5.015625 0.78125 -4.859375 C 0.78125 -4.703125 0.90625 -4.578125 1.0625 -4.578125 L 9.828125 -4.578125 C 9.984375 -4.578125 10.109375 -4.703125 10.109375 -4.859375 Z M 10.109375 -2.140625 C 10.109375 -2.296875 9.984375 -2.421875 9.828125 -2.421875 L 1.0625 -2.421875 C 0.90625 -2.421875 0.78125 -2.296875 0.78125 -2.140625 C 0.78125 -1.984375 0.90625 -1.859375 1.0625 -1.859375 L 9.828125 -1.859375 C 9.984375 -1.859375 10.109375 -1.984375 10.109375 -2.140625 Z M 10.109375 -2.140625 "/>
</g>
<g id="glyph-2-0-679d20ac">
<path d="M -3.453125 -9.625 C -3.609375 -9.625 -3.609375 -9.453125 -3.609375 -9.40625 C -3.609375 -9.25 -3.59375 -9.234375 -3.28125 -9.109375 C -1.34375 -8.296875 -0.4375 -7.8125 -0.4375 -5.59375 L -0.4375 -3.875 C -0.4375 -3.4375 -0.46875 -3.4375 -0.578125 -3.4375 C -0.65625 -3.4375 -0.796875 -3.484375 -0.875 -3.5 L -4.734375 -4.46875 L -4.734375 -5.6875 C -4.734375 -6.640625 -4.515625 -6.734375 -4.125 -6.734375 C -4.03125 -6.734375 -3.828125 -6.71875 -3.421875 -6.609375 C -3.421875 -6.609375 -3.296875 -6.578125 -3.265625 -6.578125 C -3.09375 -6.578125 -3.09375 -6.71875 -3.09375 -6.796875 C -3.09375 -6.953125 -3.125 -7 -3.375 -7.0625 L -6.453125 -7.828125 C -6.5 -7.84375 -6.640625 -7.875 -6.640625 -7.875 C -6.796875 -7.875 -6.796875 -7.703125 -6.796875 -7.640625 C -6.796875 -7.46875 -6.765625 -7.46875 -6.46875 -7.375 C -5.46875 -7.109375 -5.171875 -6.84375 -5.171875 -5.71875 L -5.171875 -4.578125 L -8.609375 -5.4375 C -9.078125 -5.546875 -9.09375 -5.640625 -9.09375 -6.109375 L -9.09375 -7.859375 C -9.09375 -9.359375 -8.671875 -9.71875 -7.671875 -9.71875 C -7.296875 -9.71875 -7.109375 -9.6875 -6.78125 -9.640625 C -6.703125 -9.625 -6.578125 -9.625 -6.53125 -9.625 C -6.375 -9.625 -6.375 -9.765625 -6.375 -9.828125 C -6.375 -10.03125 -6.421875 -10.03125 -6.671875 -10.0625 L -9.15625 -10.390625 C -9.515625 -10.4375 -9.515625 -10.34375 -9.515625 -10.046875 L -9.515625 -3.515625 C -9.515625 -3.28125 -9.515625 -3.140625 -9.265625 -3.140625 C -9.09375 -3.140625 -9.09375 -3.234375 -9.09375 -3.515625 C -9.09375 -4.328125 -8.96875 -4.328125 -8.84375 -4.328125 C -8.84375 -4.328125 -8.734375 -4.328125 -8.53125 -4.265625 L -1.015625 -2.390625 C -0.546875 -2.28125 -0.4375 -2.203125 -0.4375 -1.25 C -0.4375 -1.015625 -0.4375 -0.875 -0.171875 -0.875 C 0 -0.875 0 -1 0 -1.21875 L 0 -7.921875 C 0 -8.203125 -0.015625 -8.21875 -0.21875 -8.3125 L -3.296875 -9.5625 C -3.3125 -9.578125 -3.453125 -9.625 -3.453125 -9.625 Z M -3.453125 -9.625 "/>
</g>
<g id="glyph-3-0-679d20ac">
<path d="M -2.6875 -3.859375 C -3.359375 -3.859375 -4.03125 -3.828125 -4.65625 -3.53125 C -5.46875 -3.140625 -5.59375 -2.453125 -5.59375 -2.09375 C -5.59375 -1.59375 -5.375 -0.984375 -4.59375 -0.640625 C -4.015625 -0.375 -3.359375 -0.328125 -2.6875 -0.328125 C -2.0625 -0.328125 -1.296875 -0.359375 -0.671875 -0.703125 C 0.015625 -1.0625 0.1875 -1.6875 0.1875 -2.09375 C 0.1875 -2.546875 0.015625 -3.1875 -0.796875 -3.5625 C -1.375 -3.828125 -2.03125 -3.859375 -2.6875 -3.859375 Z M -2.796875 -3.171875 C -2.15625 -3.171875 -1.59375 -3.171875 -1.046875 -3.078125 C -0.25 -2.953125 0 -2.46875 0 -2.09375 C 0 -1.765625 -0.203125 -1.265625 -1.015625 -1.125 C -1.515625 -1.03125 -2.296875 -1.03125 -2.796875 -1.03125 C -3.328125 -1.03125 -3.890625 -1.03125 -4.34375 -1.09375 C -5.34375 -1.25 -5.40625 -1.890625 -5.40625 -2.09375 C -5.40625 -2.375 -5.265625 -2.921875 -4.4375 -3.078125 C -3.953125 -3.171875 -3.328125 -3.171875 -2.796875 -3.171875 Z M -2.796875 -3.171875 "/>
</g>
<g id="glyph-4-0-679d20ac">
<path d="M -10.21875 -6.234375 C -10.375 -6.234375 -10.5 -6.109375 -10.5 -5.953125 C -10.5 -5.828125 -10.4375 -5.71875 -10.3125 -5.6875 L 3.125 -0.796875 C 3.15625 -0.78125 3.1875 -0.78125 3.21875 -0.78125 C 3.375 -0.78125 3.5 -0.90625 3.5 -1.0625 C 3.5 -1.1875 3.4375 -1.28125 3.3125 -1.328125 L -10.125 -6.21875 C -10.15625 -6.234375 -10.1875 -6.234375 -10.21875 -6.234375 Z M -10.21875 -6.234375 "/>
</g>
<g id="glyph-5-0-679d20ac">
<path d="M -9.375 -11.921875 C -9.484375 -11.921875 -9.5625 -11.875 -9.5625 -11.75 C -9.5625 -11.3125 -9.515625 -10.84375 -9.515625 -10.40625 C -9.515625 -9.953125 -9.5625 -9.484375 -9.5625 -9.046875 C -9.5625 -8.96875 -9.5625 -8.796875 -9.296875 -8.796875 C -9.140625 -8.796875 -9.125 -8.921875 -9.125 -9.046875 C -9.09375 -9.765625 -8.8125 -9.890625 -8.53125 -9.890625 C -8.40625 -9.890625 -8.296875 -9.859375 -8.1875 -9.828125 L -2.046875 -8.28125 L -9.328125 -5.671875 C -9.546875 -5.59375 -9.5625 -5.578125 -9.5625 -5.28125 L -9.5625 -3.53125 C -9.5625 -3.296875 -9.5625 -3.15625 -9.296875 -3.15625 C -9.125 -3.15625 -9.125 -3.265625 -9.125 -3.53125 C -9.125 -3.625 -9.125 -4.375 -9.015625 -4.375 C -9.015625 -4.375 -8.96875 -4.375 -8.828125 -4.34375 L -1.40625 -2.484375 C -0.640625 -2.296875 -0.46875 -1.78125 -0.4375 -1.140625 C -0.4375 -1.015625 -0.421875 -0.875 -0.171875 -0.875 C -0.046875 -0.875 0 -0.953125 0 -1.046875 C 0 -1.46875 -0.046875 -1.953125 -0.046875 -2.375 C -0.046875 -2.828125 0 -3.3125 0 -3.75 C 0 -3.84375 0 -4 -0.25 -4 C -0.421875 -4 -0.4375 -3.90625 -0.4375 -3.734375 C -0.46875 -2.9375 -0.828125 -2.90625 -1.03125 -2.90625 C -1.078125 -2.90625 -1.15625 -2.90625 -1.390625 -2.96875 L -8.59375 -4.78125 L -0.234375 -7.78125 C -0.03125 -7.859375 0 -7.875 0 -8.0625 C 0 -8.21875 -0.015625 -8.28125 -0.28125 -8.34375 L -8.171875 -10.296875 C -9.078125 -10.53125 -9.109375 -11.3125 -9.125 -11.71875 C -9.125 -11.765625 -9.140625 -11.921875 -9.375 -11.921875 Z M -9.375 -11.921875 "/>
</g>
<g id="glyph-6-0-679d20ac">
<path d="M 12.046875 0 L 12.046875 -0.65625 L 10.53125 -0.65625 L 10.53125 -8.953125 L 12.046875 -8.953125 L 12.046875 -9.609375 C 11.515625 -9.5625 10.140625 -9.5625 9.53125 -9.5625 C 8.9375 -9.5625 7.5625 -9.5625 7.03125 -9.609375 L 7.03125 -8.953125 L 8.546875 -8.953125 L 8.546875 -5.3125 L 4.046875 -5.3125 L 4.046875 -8.953125 L 5.5625 -8.953125 L 5.5625 -9.609375 C 5.03125 -9.5625 3.65625 -9.5625 3.046875 -9.5625 C 2.453125 -9.5625 1.078125 -9.5625 0.546875 -9.609375 L 0.546875 -8.953125 L 2.0625 -8.953125 L 2.0625 -0.65625 L 0.546875 -0.65625 L 0.546875 0 C 1.078125 -0.046875 2.453125 -0.046875 3.046875 -0.046875 C 3.65625 -0.046875 5.03125 -0.046875 5.5625 0 L 5.5625 -0.65625 L 4.046875 -0.65625 L 4.046875 -4.65625 L 8.546875 -4.65625 L 8.546875 -0.65625 L 7.03125 -0.65625 L 7.03125 0 C 7.5625 -0.046875 8.9375 -0.046875 9.53125 -0.046875 C 10.140625 -0.046875 11.515625 -0.046875 12.046875 0 Z M 12.046875 0 "/>
</g>
<g id="glyph-6-1-679d20ac">
<path d="M 7.734375 -0.34375 C 7.734375 -0.65625 7.5625 -0.65625 7.375 -0.65625 C 6.53125 -0.671875 6.53125 -0.859375 6.53125 -1.171875 L 6.53125 -4.1875 C 6.53125 -5.4375 5.53125 -6.34375 3.4375 -6.34375 C 2.640625 -6.34375 0.9375 -6.28125 0.9375 -5.046875 C 0.9375 -4.4375 1.421875 -4.171875 1.8125 -4.171875 C 2.234375 -4.171875 2.6875 -4.46875 2.6875 -5.046875 C 2.6875 -5.46875 2.421875 -5.71875 2.375 -5.734375 C 2.765625 -5.828125 3.21875 -5.84375 3.390625 -5.84375 C 4.4375 -5.84375 4.921875 -5.25 4.921875 -4.1875 L 4.921875 -3.703125 C 3.9375 -3.671875 0.375 -3.546875 0.375 -1.515625 C 0.375 -0.171875 2.109375 0.078125 3.078125 0.078125 C 4.203125 0.078125 4.859375 -0.484375 5.171875 -1.078125 C 5.171875 -0.640625 5.171875 0 6.625 0 L 7.296875 0 C 7.578125 0 7.734375 0 7.734375 -0.34375 Z M 4.921875 -1.953125 C 4.921875 -0.609375 3.640625 -0.421875 3.296875 -0.421875 C 2.578125 -0.421875 2.015625 -0.90625 2.015625 -1.53125 C 2.015625 -3.03125 4.234375 -3.234375 4.921875 -3.28125 Z M 4.921875 -1.953125 "/>
</g>
<g id="glyph-6-2-679d20ac">
<path d="M 4.109375 0 L 4.109375 -0.65625 L 3.140625 -0.65625 L 3.140625 -9.71875 L 0.65625 -9.609375 L 0.65625 -8.953125 C 1.53125 -8.953125 1.625 -8.953125 1.625 -8.40625 L 1.625 -0.65625 L 0.65625 -0.65625 L 0.65625 0 L 2.375 -0.046875 Z M 4.109375 0 "/>
</g>
<g id="glyph-6-3-679d20ac">
<path d="M 6.125 -8.578125 C 6.125 -9.171875 5.609375 -9.796875 4.515625 -9.796875 C 3.15625 -9.796875 1.640625 -9.21875 1.640625 -7.625 L 1.640625 -6.21875 L 0.59375 -6.21875 L 0.59375 -5.5625 L 1.640625 -5.5625 L 1.640625 -0.65625 L 0.671875 -0.65625 L 0.671875 0 L 2.4375 -0.046875 C 2.96875 -0.046875 3.859375 -0.046875 4.375 0 L 4.375 -0.65625 L 3.15625 -0.65625 L 3.15625 -5.5625 L 4.765625 -5.5625 L 4.765625 -6.21875 L 3.0625 -6.21875 L 3.0625 -7.625 C 3.0625 -9.171875 4.125 -9.296875 4.484375 -9.296875 C 4.546875 -9.296875 4.625 -9.296875 4.71875 -9.265625 C 4.515625 -9.109375 4.390625 -8.84375 4.390625 -8.578125 C 4.390625 -7.984375 4.890625 -7.71875 5.25 -7.71875 C 5.671875 -7.71875 6.125 -8.015625 6.125 -8.578125 Z M 6.125 -8.578125 "/>
</g>
<g id="glyph-6-4-679d20ac">
<path d="M 4.453125 -2.4375 L 4.453125 -3.796875 L 0.1875 -3.796875 L 0.1875 -2.4375 Z M 4.453125 -2.4375 "/>
</g>
<g id="glyph-6-5-679d20ac">
<path d="M 4 0 L 4 -0.65625 L 3.140625 -0.65625 L 3.140625 -6.296875 L 0.703125 -6.1875 L 0.703125 -5.53125 C 1.53125 -5.53125 1.625 -5.53125 1.625 -4.984375 L 1.625 -0.65625 L 0.65625 -0.65625 L 0.65625 0 L 2.359375 -0.046875 Z M 3.328125 -8.5 C 3.328125 -9.09375 2.84375 -9.59375 2.234375 -9.59375 C 1.640625 -9.59375 1.140625 -9.09375 1.140625 -8.5 C 1.140625 -7.890625 1.640625 -7.40625 2.234375 -7.40625 C 2.84375 -7.40625 3.328125 -7.890625 3.328125 -8.5 Z M 3.328125 -8.5 "/>
</g>
<g id="glyph-6-6-679d20ac">
<path d="M 8.40625 0 L 8.40625 -0.65625 C 7.546875 -0.65625 7.453125 -0.65625 7.453125 -1.203125 L 7.453125 -9.71875 L 4.96875 -9.609375 L 4.96875 -8.953125 C 5.84375 -8.953125 5.9375 -8.953125 5.9375 -8.40625 L 5.9375 -5.671875 C 5.234375 -6.21875 4.515625 -6.296875 4.046875 -6.296875 C 2 -6.296875 0.53125 -5.0625 0.53125 -3.09375 C 0.53125 -1.25 1.8125 0.078125 3.890625 0.078125 C 4.75 0.078125 5.421875 -0.25 5.859375 -0.609375 L 5.859375 0.078125 Z M 5.859375 -1.4375 C 5.671875 -1.1875 5.09375 -0.421875 4.03125 -0.421875 C 2.328125 -0.421875 2.328125 -2.109375 2.328125 -3.09375 C 2.328125 -3.765625 2.328125 -4.515625 2.6875 -5.0625 C 3.09375 -5.65625 3.75 -5.796875 4.1875 -5.796875 C 4.984375 -5.796875 5.546875 -5.34375 5.859375 -4.9375 Z M 5.859375 -1.4375 "/>
</g>
<g id="glyph-6-7-679d20ac">
</g>
<g id="glyph-6-8-679d20ac">
<path d="M 8.609375 0 L 8.609375 -0.65625 C 7.734375 -0.65625 7.640625 -0.65625 7.640625 -1.203125 L 7.640625 -6.296875 L 5.078125 -6.1875 L 5.078125 -5.53125 C 5.953125 -5.53125 6.046875 -5.53125 6.046875 -4.984375 L 6.046875 -2.3125 C 6.046875 -1.15625 5.328125 -0.421875 4.3125 -0.421875 C 3.234375 -0.421875 3.1875 -0.765625 3.1875 -1.53125 L 3.1875 -6.296875 L 0.625 -6.1875 L 0.625 -5.53125 C 1.5 -5.53125 1.59375 -5.53125 1.59375 -4.984375 L 1.59375 -1.71875 C 1.59375 -0.21875 2.734375 0.078125 4.109375 0.078125 C 4.484375 0.078125 5.484375 0.078125 6.125 -1.015625 L 6.125 0.078125 Z M 8.609375 0 "/>
</g>
<g id="glyph-6-9-679d20ac">
<path d="M 8.40625 -3.125 C 8.40625 -4.984375 7.078125 -6.296875 5.046875 -6.296875 C 4.03125 -6.296875 3.328125 -5.890625 3 -5.609375 L 3 -9.71875 L 0.515625 -9.609375 L 0.515625 -8.953125 C 1.390625 -8.953125 1.484375 -8.953125 1.484375 -8.40625 L 1.484375 0 L 2.140625 0 C 2.359375 -0.265625 2.609375 -0.515625 2.828125 -0.78125 C 2.9375 -0.671875 3.625 0.078125 4.875 0.078125 C 6.953125 0.078125 8.40625 -1.171875 8.40625 -3.125 Z M 6.609375 -3.125 C 6.609375 -2.46875 6.609375 -1.6875 6.25 -1.140625 C 5.84375 -0.578125 5.1875 -0.421875 4.75 -0.421875 C 3.765625 -0.421875 3.21875 -1.171875 3.078125 -1.390625 L 3.078125 -4.90625 C 3.453125 -5.390625 4.125 -5.796875 4.90625 -5.796875 C 6.609375 -5.796875 6.609375 -4.109375 6.609375 -3.125 Z M 6.609375 -3.125 "/>
</g>
<g id="glyph-6-10-679d20ac">
<path d="M 6.1875 -5.15625 C 6.1875 -5.890625 5.4375 -6.296875 4.703125 -6.296875 C 3.71875 -6.296875 3.15625 -5.59375 2.84375 -4.71875 L 2.84375 -6.296875 L 0.515625 -6.1875 L 0.515625 -5.53125 C 1.390625 -5.53125 1.484375 -5.53125 1.484375 -4.984375 L 1.484375 -0.65625 L 0.515625 -0.65625 L 0.515625 0 L 2.28125 -0.046875 C 2.8125 -0.046875 3.703125 -0.046875 4.21875 0 L 4.21875 -0.65625 L 3 -0.65625 L 3 -3.109375 C 3 -4.09375 3.34375 -5.796875 4.75 -5.796875 C 4.75 -5.796875 4.484375 -5.5625 4.484375 -5.15625 C 4.484375 -4.578125 4.921875 -4.296875 5.328125 -4.296875 C 5.734375 -4.296875 6.1875 -4.59375 6.1875 -5.15625 Z M 6.1875 -5.15625 "/>
</g>
<g id="glyph-6-11-679d20ac">
<path d="M 6.6875 -1.640625 C 6.6875 -1.828125 6.5 -1.828125 6.359375 -1.828125 C 6.109375 -1.828125 6.09375 -1.8125 6.015625 -1.625 C 5.65625 -0.734375 4.984375 -0.46875 4.265625 -0.46875 C 2.328125 -0.46875 2.328125 -2.53125 2.328125 -3.171875 C 2.328125 -3.96875 2.328125 -5.78125 4.125 -5.78125 C 4.625 -5.78125 4.859375 -5.734375 5.046875 -5.703125 C 4.78125 -5.46875 4.765625 -5.1875 4.765625 -5.046875 C 4.765625 -4.4375 5.25 -4.171875 5.625 -4.171875 C 6.0625 -4.171875 6.515625 -4.46875 6.515625 -5.046875 C 6.515625 -6.265625 4.890625 -6.34375 4.078125 -6.34375 C 1.5625 -6.34375 0.53125 -4.734375 0.53125 -3.109375 C 0.53125 -1.25 1.84375 0.078125 4 0.078125 C 6.265625 0.078125 6.6875 -1.546875 6.6875 -1.640625 Z M 6.6875 -1.640625 "/>
</g>
<g id="glyph-6-12-679d20ac">
<path d="M 8.609375 0 L 8.609375 -0.65625 L 7.640625 -0.65625 L 7.640625 -4.28125 C 7.640625 -5.75 6.890625 -6.296875 5.484375 -6.296875 C 4.140625 -6.296875 3.4375 -5.484375 3.125 -4.953125 L 3.109375 -4.953125 L 3.109375 -9.71875 L 0.625 -9.609375 L 0.625 -8.953125 C 1.5 -8.953125 1.59375 -8.953125 1.59375 -8.40625 L 1.59375 -0.65625 L 0.625 -0.65625 L 0.625 0 L 2.390625 -0.046875 L 4.15625 0 L 4.15625 -0.65625 L 3.1875 -0.65625 L 3.1875 -3.578125 C 3.1875 -5.109375 4.390625 -5.796875 5.28125 -5.796875 C 5.75 -5.796875 6.046875 -5.5 6.046875 -4.4375 L 6.046875 -0.65625 L 5.078125 -0.65625 L 5.078125 0 L 6.84375 -0.046875 Z M 8.609375 0 "/>
</g>
<g id="glyph-6-13-679d20ac">
<path d="M 8.609375 0 L 8.609375 -0.65625 L 7.640625 -0.65625 L 7.640625 -4.28125 C 7.640625 -5.75 6.890625 -6.296875 5.484375 -6.296875 C 4.140625 -6.296875 3.40625 -5.5 3.03125 -4.78125 L 3.03125 -6.296875 L 0.625 -6.1875 L 0.625 -5.53125 C 1.5 -5.53125 1.59375 -5.53125 1.59375 -4.984375 L 1.59375 -0.65625 L 0.625 -0.65625 L 0.625 0 L 2.390625 -0.046875 L 4.15625 0 L 4.15625 -0.65625 L 3.1875 -0.65625 L 3.1875 -3.578125 C 3.1875 -5.109375 4.390625 -5.796875 5.28125 -5.796875 C 5.75 -5.796875 6.046875 -5.5 6.046875 -4.4375 L 6.046875 -0.65625 L 5.078125 -0.65625 L 5.078125 0 L 6.84375 -0.046875 Z M 8.609375 0 "/>
</g>
<g id="glyph-6-14-679d20ac">
<path d="M 8.125 -5.5625 L 8.125 -6.21875 C 7.765625 -6.1875 7.359375 -6.171875 7.015625 -6.171875 L 5.734375 -6.21875 L 5.734375 -5.5625 C 6 -5.5625 6.40625 -5.515625 6.40625 -5.40625 C 6.40625 -5.40625 6.40625 -5.375 6.34375 -5.234375 L 4.71875 -1.734375 L 2.9375 -5.5625 L 3.703125 -5.5625 L 3.703125 -6.21875 L 1.953125 -6.171875 L 0.359375 -6.21875 L 0.359375 -5.5625 L 1.265625 -5.5625 L 3.703125 -0.296875 C 3.875 0.0625 4.0625 0.0625 4.234375 0.0625 C 4.484375 0.0625 4.625 0.015625 4.765625 -0.28125 L 7.078125 -5.265625 C 7.171875 -5.453125 7.21875 -5.5625 8.125 -5.5625 Z M 8.125 -5.5625 "/>
</g>
<g id="glyph-6-15-679d20ac">
<path d="M 5.8125 -1.953125 C 5.8125 -2.5625 5.53125 -3.046875 5.046875 -3.4375 C 4.5 -3.84375 4.046875 -3.9375 2.953125 -4.109375 C 2.4375 -4.21875 1.53125 -4.375 1.53125 -5.03125 C 1.53125 -5.890625 2.828125 -5.890625 3.09375 -5.890625 C 4.140625 -5.890625 4.671875 -5.484375 4.75 -4.71875 C 4.765625 -4.515625 4.78125 -4.4375 5.0625 -4.4375 C 5.40625 -4.4375 5.40625 -4.515625 5.40625 -4.828125 L 5.40625 -5.953125 C 5.40625 -6.21875 5.40625 -6.34375 5.15625 -6.34375 C 5.09375 -6.34375 5.0625 -6.34375 4.515625 -6.078125 C 4.15625 -6.265625 3.671875 -6.34375 3.109375 -6.34375 C 2.6875 -6.34375 0.53125 -6.34375 0.53125 -4.515625 C 0.53125 -3.953125 0.8125 -3.5625 1.09375 -3.328125 C 1.65625 -2.84375 2.1875 -2.765625 3.265625 -2.5625 C 3.765625 -2.484375 4.8125 -2.296875 4.8125 -1.46875 C 4.8125 -0.421875 3.53125 -0.421875 3.21875 -0.421875 C 1.734375 -0.421875 1.375 -1.4375 1.203125 -2.046875 C 1.140625 -2.234375 1.0625 -2.234375 0.875 -2.234375 C 0.53125 -2.234375 0.53125 -2.15625 0.53125 -1.828125 L 0.53125 -0.3125 C 0.53125 -0.046875 0.53125 0.078125 0.78125 0.078125 C 0.875 0.078125 0.90625 0.078125 1.203125 -0.125 L 1.5625 -0.359375 C 2.21875 0.078125 2.9375 0.078125 3.21875 0.078125 C 3.65625 0.078125 5.8125 0.078125 5.8125 -1.953125 Z M 5.8125 -1.953125 "/>
</g>
<g id="glyph-6-16-679d20ac">
<path d="M 3.3125 -1.09375 C 3.3125 -1.6875 2.828125 -2.1875 2.21875 -2.1875 C 1.625 -2.1875 1.140625 -1.6875 1.140625 -1.09375 C 1.140625 -0.484375 1.625 0 2.21875 0 C 2.828125 0 3.3125 -0.484375 3.3125 -1.09375 Z M 3.3125 -1.09375 "/>
</g>
<g id="glyph-6-17-679d20ac">
<path d="M 9 -3.84375 L 8.34375 -3.84375 C 8.234375 -2.875 8 -0.65625 5.484375 -0.65625 L 4.046875 -0.65625 L 4.046875 -8.953125 L 5.9375 -8.953125 L 5.9375 -9.609375 C 5.3125 -9.5625 3.796875 -9.5625 3.109375 -9.5625 C 2.484375 -9.5625 1.078125 -9.5625 0.546875 -9.609375 L 0.546875 -8.953125 L 2.0625 -8.953125 L 2.0625 -0.65625 L 0.546875 -0.65625 L 0.546875 0 L 8.5625 0 Z M 9 -3.84375 "/>
</g>
<g id="glyph-6-18-679d20ac">
<path d="M 6.921875 -1.640625 C 6.921875 -1.890625 6.65625 -1.890625 6.578125 -1.890625 C 6.34375 -1.890625 6.3125 -1.8125 6.234375 -1.59375 C 5.9375 -0.921875 5.140625 -0.46875 4.234375 -0.46875 C 2.25 -0.46875 2.234375 -2.34375 2.234375 -3.046875 L 6.46875 -3.046875 C 6.78125 -3.046875 6.921875 -3.046875 6.921875 -3.4375 C 6.921875 -3.859375 6.828125 -4.890625 6.125 -5.59375 C 5.609375 -6.09375 4.875 -6.34375 3.90625 -6.34375 C 1.671875 -6.34375 0.453125 -4.90625 0.453125 -3.15625 C 0.453125 -1.28125 1.84375 0.078125 4.109375 0.078125 C 6.3125 0.078125 6.921875 -1.40625 6.921875 -1.640625 Z M 5.59375 -3.515625 L 2.234375 -3.515625 C 2.265625 -4.0625 2.28125 -4.640625 2.578125 -5.109375 C 2.9375 -5.671875 3.5 -5.84375 3.90625 -5.84375 C 5.546875 -5.84375 5.578125 -4 5.59375 -3.515625 Z M 5.59375 -3.515625 "/>
</g>
<g id="glyph-6-19-679d20ac">
<path d="M 16.296875 -8.953125 L 16.296875 -9.609375 C 15.921875 -9.59375 15.421875 -9.5625 14.796875 -9.5625 C 14.265625 -9.5625 13.390625 -9.5625 12.890625 -9.609375 L 12.890625 -8.953125 C 13.25 -8.953125 13.921875 -8.953125 14.328125 -8.796875 L 11.90625 -2.53125 L 9.4375 -8.953125 L 10.78125 -8.953125 L 10.78125 -9.609375 C 10.25 -9.5625 8.9375 -9.5625 8.328125 -9.5625 C 7.78125 -9.5625 6.671875 -9.5625 6.1875 -9.609375 L 6.1875 -8.953125 L 7.390625 -8.953125 L 7.96875 -7.46875 L 6.0625 -2.53125 L 3.578125 -8.953125 L 4.921875 -8.953125 L 4.921875 -9.609375 C 4.390625 -9.5625 3.078125 -9.5625 2.484375 -9.5625 C 1.9375 -9.5625 0.828125 -9.5625 0.34375 -9.609375 L 0.34375 -8.953125 L 1.546875 -8.953125 L 4.90625 -0.25 C 4.984375 -0.03125 5.046875 0.109375 5.390625 0.109375 C 5.734375 0.109375 5.796875 -0.03125 5.875 -0.25 L 8.3125 -6.546875 L 10.75 -0.25 C 10.84375 -0.03125 10.890625 0.109375 11.234375 0.109375 C 11.59375 0.109375 11.640625 -0.03125 11.734375 -0.25 L 14.96875 -8.609375 C 15.046875 -8.84375 15.0625 -8.875 15.5 -8.921875 C 15.78125 -8.953125 16.078125 -8.953125 16.296875 -8.953125 Z M 16.296875 -8.953125 "/>
</g>
<g id="glyph-7-0-679d20ac">
<path d="M 6.921875 -1.640625 C 6.921875 -1.890625 6.65625 -1.890625 6.578125 -1.890625 C 6.34375 -1.890625 6.3125 -1.8125 6.234375 -1.59375 C 5.9375 -0.921875 5.140625 -0.46875 4.234375 -0.46875 C 2.25 -0.46875 2.234375 -2.34375 2.234375 -3.046875 L 6.46875 -3.046875 C 6.78125 -3.046875 6.921875 -3.046875 6.921875 -3.4375 C 6.921875 -3.859375 6.828125 -4.890625 6.125 -5.59375 C 5.609375 -6.09375 4.875 -6.34375 3.90625 -6.34375 C 1.671875 -6.34375 0.453125 -4.90625 0.453125 -3.15625 C 0.453125 -1.28125 1.84375 0.078125 4.109375 0.078125 C 6.3125 0.078125 6.921875 -1.40625 6.921875 -1.640625 Z M 5.59375 -3.515625 L 2.234375 -3.515625 C 2.265625 -4.0625 2.28125 -4.640625 2.578125 -5.109375 C 2.9375 -5.671875 3.5 -5.84375 3.90625 -5.84375 C 5.546875 -5.84375 5.578125 -4 5.59375 -3.515625 Z M 5.59375 -3.515625 "/>
</g>
</g>
<clipPath id="clip-0-679d20ac">
<path clip-rule="nonzero" d="M 74 371 L 584 371 L 584 374 L 74 374 Z M 74 371 "/>
</clipPath>
<clipPath id="clip-1-679d20ac">
<path clip-rule="nonzero" d="M 74 228 L 584 228 L 584 230 L 74 230 Z M 74 228 "/>
</clipPath>
<clipPath id="clip-2-679d20ac">
<path clip-rule="nonzero" d="M 74 137 L 584 137 L 584 140 L 74 140 Z M 74 137 "/>
</clipPath>
<clipPath id="clip-3-679d20ac">
<path clip-rule="nonzero" d="M 74 55 L 584 55 L 584 57 L 74 57 Z M 74 55 "/>
</clipPath>
</defs>
<rect x="-60" y="-45" width="720" height="540" fill="rgb(100%, 100%, 100%)" fill-opacity="1"/>
<path fill-rule="nonzero" fill="rgb(100%, 100%, 100%)" fill-opacity="1" d="M 74 396 L 584 396 L 584 40 L 74 40 Z M 74 396 "/>
<path fill="none" stroke-width="1" stroke-linecap="butt" stroke-linejoin="miter" stroke="rgb(0%, 0%, 0%)" stroke-opacity="0.12" stroke-miterlimit="1.154701" d="M 97.183594 396 L 97.183594 40 "/>
<path fill="none" stroke-width="1" stroke-linecap="butt" stroke-linejoin="miter" stroke="rgb(0%, 0%, 0%)" stroke-opacity="0.12" stroke-miterlimit="1.154701" d="M 213.089844 396 L 213.089844 40 "/>
<path fill="none" stroke-width="1" stroke-linecap="butt" stroke-linejoin="miter" stroke="rgb(0%, 0%, 0%)" stroke-opacity="0.12" stroke-miterlimit="1.154701" d="M 329 396 L 329 40 "/>
<path fill="none" stroke-width="1" stroke-linecap="butt" stroke-linejoin="miter" stroke="rgb(0%, 0%, 0%)" stroke-opacity="0.12" stroke-miterlimit="1.154701" d="M 444.910156 396 L 444.910156 40 "/>
<path fill="none" stroke-width="1" stroke-linecap="butt" stroke-linejoin="miter" stroke="rgb(0%, 0%, 0%)" stroke-opacity="0.12" stroke-miterlimit="1.154701" d="M 560.816406 396 L 560.816406 40 "/>
<path fill="none" stroke-width="1" stroke-linecap="butt" stroke-linejoin="miter" stroke="rgb(0%, 0%, 0%)" stroke-opacity="0.12" stroke-miterlimit="1.154701" d="M 74 348.210938 L 584 348.210938 "/>
<path fill="none" stroke-width="1" stroke-linecap="butt" stroke-linejoin="miter" stroke="rgb(0%, 0%, 0%)" stroke-opacity="0.12" stroke-miterlimit="1.154701" d="M 74 281.269531 L 584 281.269531 "/>
<path fill="none" stroke-width="1" stroke-linecap="butt" stroke-linejoin="miter" stroke="rgb(0%, 0%, 0%)" stroke-opacity="0.12" stroke-miterlimit="1.154701" d="M 74 214.324219 L 584 214.324219 "/>
<path fill="none" stroke-width="1" stroke-linecap="butt" stroke-linejoin="miter" stroke="rgb(0%, 0%, 0%)" stroke-opacity="0.12" stroke-miterlimit="1.154701" d="M 74 147.382812 L 584 147.382812 "/>
<path fill="none" stroke-width="1" stroke-linecap="butt" stroke-linejoin="miter" stroke="rgb(0%, 0%, 0%)" stroke-opacity="0.12" stroke-miterlimit="1.154701" d="M 74 80.4375 L 584 80.4375 "/>
<g fill="rgb(0%, 0%, 0%)" fill-opacity="1">
<use xlink:href="#glyph-0-0-679d20ac" x="323.799008" y="432.284"/>
</g>
<g fill="rgb(0%, 0%, 0%)" fill-opacity="1">
<use xlink:href="#glyph-1-0-679d20ac" x="93.681818" y="415.284"/>
</g>
<g fill="rgb(0%, 0%, 0%)" fill-opacity="1">
<use xlink:href="#glyph-1-1-679d20ac" x="209.590917" y="415.284"/>
</g>
<g fill="rgb(0%, 0%, 0%)" fill-opacity="1">
<use xlink:href="#glyph-1-2-679d20ac" x="322.000008" y="415.284"/>
<use xlink:href="#glyph-1-3-679d20ac" x="329.000008" y="415.284"/>
</g>
<g fill="rgb(0%, 0%, 0%)" fill-opacity="1">
<use xlink:href="#glyph-1-2-679d20ac" x="437.909099" y="415.284"/>
<use xlink:href="#glyph-1-2-679d20ac" x="444.909099" y="415.284"/>
</g>
<g fill="rgb(0%, 0%, 0%)" fill-opacity="1">
<use xlink:href="#glyph-1-2-679d20ac" x="553.81819" y="415.284"/>
<use xlink:href="#glyph-1-4-679d20ac" x="560.81819" y="415.284"/>
</g>
<g fill="rgb(0%, 0%, 0%)" fill-opacity="1">
<use xlink:href="#glyph-2-0-679d20ac" x="25.7864" y="233.112993"/>
</g>
<g fill="rgb(0%, 0%, 0%)" fill-opacity="1">
<use xlink:href="#glyph-3-0-679d20ac" x="28.5864" y="223.620993"/>
</g>
<g fill="rgb(0%, 0%, 0%)" fill-opacity="1">
<use xlink:href="#glyph-4-0-679d20ac" x="25.786401" y="219.420994"/>
</g>
<g fill="rgb(0%, 0%, 0%)" fill-opacity="1">
<use xlink:href="#glyph-5-0-679d20ac" x="25.786401" y="213.288994"/>
</g>
<g fill="rgb(0%, 0%, 0%)" fill-opacity="1">
<use xlink:href="#glyph-1-5-679d20ac" x="35.216" y="352.495828"/>
<use xlink:href="#glyph-1-2-679d20ac" x="46.108001" y="352.495828"/>
<use xlink:href="#glyph-1-6-679d20ac" x="53.108001" y="352.495828"/>
<use xlink:href="#glyph-1-4-679d20ac" x="57.000001" y="352.495828"/>
</g>
<g fill="rgb(0%, 0%, 0%)" fill-opacity="1">
<use xlink:href="#glyph-1-5-679d20ac" x="35.216" y="285.552505"/>
<use xlink:href="#glyph-1-2-679d20ac" x="46.108001" y="285.552505"/>
<use xlink:href="#glyph-1-6-679d20ac" x="53.108001" y="285.552505"/>
<use xlink:href="#glyph-1-3-679d20ac" x="57.000001" y="285.552505"/>
</g>
<g fill="rgb(0%, 0%, 0%)" fill-opacity="1">
<use xlink:href="#glyph-1-5-679d20ac" x="35.216" y="218.60919"/>
<use xlink:href="#glyph-1-3-679d20ac" x="46.108001" y="218.60919"/>
<use xlink:href="#glyph-1-6-679d20ac" x="53.108001" y="218.60919"/>
<use xlink:href="#glyph-1-0-679d20ac" x="57.000001" y="218.60919"/>
</g>
<g fill="rgb(0%, 0%, 0%)" fill-opacity="1">
<use xlink:href="#glyph-1-5-679d20ac" x="35.216" y="151.66586"/>
<use xlink:href="#glyph-1-3-679d20ac" x="46.108001" y="151.66586"/>
<use xlink:href="#glyph-1-6-679d20ac" x="53.108001" y="151.66586"/>
<use xlink:href="#glyph-1-7-679d20ac" x="57.000001" y="151.66586"/>
</g>
<g fill="rgb(0%, 0%, 0%)" fill-opacity="1">
<use xlink:href="#glyph-1-5-679d20ac" x="35.216" y="84.722529"/>
<use xlink:href="#glyph-1-3-679d20ac" x="46.108001" y="84.722529"/>
<use xlink:href="#glyph-1-6-679d20ac" x="53.108001" y="84.722529"/>
<use xlink:href="#glyph-1-8-679d20ac" x="57.000001" y="84.722529"/>
</g>
<g fill="rgb(0%, 0%, 0%)" fill-opacity="1">
<use xlink:href="#glyph-6-0-679d20ac" x="192.90598" y="31.86999"/>
<use xlink:href="#glyph-6-1-679d20ac" x="205.505979" y="31.86999"/>
<use xlink:href="#glyph-6-2-679d20ac" x="213.331975" y="31.86999"/>
<use xlink:href="#glyph-6-3-679d20ac" x="217.797979" y="31.86999"/>
<use xlink:href="#glyph-6-4-679d20ac" x="222.71198" y="31.86999"/>
<use xlink:href="#glyph-6-3-679d20ac" x="228.07398" y="31.86999"/>
<use xlink:href="#glyph-6-5-679d20ac" x="232.987982" y="31.86999"/>
<use xlink:href="#glyph-6-2-679d20ac" x="237.453985" y="31.86999"/>
<use xlink:href="#glyph-6-2-679d20ac" x="241.919981" y="31.86999"/>
</g>
<g fill="rgb(0%, 0%, 0%)" fill-opacity="1">
<use xlink:href="#glyph-7-0-679d20ac" x="246.385977" y="31.86999"/>
</g>
<g fill="rgb(0%, 0%, 0%)" fill-opacity="1">
<use xlink:href="#glyph-6-6-679d20ac" x="253.763983" y="31.86999"/>
<use xlink:href="#glyph-6-7-679d20ac" x="262.709983" y="31.86999"/>
<use xlink:href="#glyph-6-0-679d20ac" x="268.071982" y="31.86999"/>
<use xlink:href="#glyph-6-8-679d20ac" x="280.671981" y="31.86999"/>
<use xlink:href="#glyph-6-9-679d20ac" x="289.61798" y="31.86999"/>
<use xlink:href="#glyph-6-9-679d20ac" x="298.56398" y="31.86999"/>
<use xlink:href="#glyph-6-1-679d20ac" x="307.509979" y="31.86999"/>
<use xlink:href="#glyph-6-10-679d20ac" x="315.335976" y="31.86999"/>
<use xlink:href="#glyph-6-6-679d20ac" x="321.971977" y="31.86999"/>
<use xlink:href="#glyph-6-7-679d20ac" x="330.917977" y="31.86999"/>
<use xlink:href="#glyph-6-11-679d20ac" x="336.279976" y="31.86999"/>
<use xlink:href="#glyph-6-12-679d20ac" x="343.433984" y="31.86999"/>
<use xlink:href="#glyph-6-1-679d20ac" x="352.379983" y="31.86999"/>
<use xlink:href="#glyph-6-5-679d20ac" x="360.205987" y="31.86999"/>
<use xlink:href="#glyph-6-13-679d20ac" x="364.671991" y="31.86999"/>
<use xlink:href="#glyph-6-7-679d20ac" x="373.61799" y="31.86999"/>
<use xlink:href="#glyph-6-14-679d20ac" x="378.97999" y="31.86999"/>
<use xlink:href="#glyph-6-15-679d20ac" x="387.477991" y="31.86999"/>
<use xlink:href="#glyph-6-16-679d20ac" x="393.833994" y="31.86999"/>
<use xlink:href="#glyph-6-7-679d20ac" x="398.299997" y="31.86999"/>
<use xlink:href="#glyph-6-17-679d20ac" x="403.661997" y="31.86999"/>
<use xlink:href="#glyph-6-5-679d20ac" x="413.350001" y="31.86999"/>
<use xlink:href="#glyph-6-18-679d20ac" x="417.816004" y="31.86999"/>
<use xlink:href="#glyph-6-9-679d20ac" x="425.194011" y="31.86999"/>
<use xlink:href="#glyph-6-4-679d20ac" x="434.14001" y="31.86999"/>
<use xlink:href="#glyph-6-19-679d20ac" x="439.50201" y="31.86999"/>
<use xlink:href="#glyph-6-8-679d20ac" x="456.148021" y="31.86999"/>
</g>
<path fill="none" stroke-width="1.5" stroke-linecap="butt" stroke-linejoin="miter" stroke="rgb(0%, 44.705883%, 69.803923%)" stroke-opacity="1" stroke-miterlimit="2" d="M 97.183594 350.589844 L 329 379.816406 L 560.816406 362.945312 "/>
<path fill-rule="nonzero" fill="rgb(0%, 44.705883%, 69.803923%)" fill-opacity="1" d="M 100.355469 350.589844 C 100.355469 346.359375 94.007812 346.359375 94.007812 350.589844 C 94.007812 354.820312 100.355469 354.820312 100.355469 350.589844 Z M 100.355469 350.589844 "/>
<path fill-rule="nonzero" fill="rgb(0%, 44.705883%, 69.803923%)" fill-opacity="1" d="M 332.171875 379.816406 C 332.171875 375.589844 325.828125 375.589844 325.828125 379.816406 C 325.828125 384.046875 332.171875 384.046875 332.171875 379.816406 Z M 332.171875 379.816406 "/>
<path fill-rule="nonzero" fill="rgb(0%, 44.705883%, 69.803923%)" fill-opacity="1" d="M 563.992188 362.945312 C 563.992188 358.714844 557.644531 358.714844 557.644531 362.945312 C 557.644531 367.175781 563.992188 367.175781 563.992188 362.945312 Z M 563.992188 362.945312 "/>
<g clip-path="url(#clip-0-679d20ac)">
<path fill="none" stroke-width="1.5" stroke-linecap="butt" stroke-linejoin="miter" stroke="rgb(0%, 44.705883%, 69.803923%)" stroke-opacity="1" stroke-dasharray="4.5 4.5" stroke-miterlimit="1.154701" d="M 74 372.726562 L 584 372.726562 "/>
</g>
<path fill="none" stroke-width="1.5" stroke-linecap="butt" stroke-linejoin="miter" stroke="rgb(90.196079%, 62.352943%, 0%)" stroke-opacity="1" stroke-miterlimit="2" d="M 97.183594 221.363281 L 329 235.695312 L 560.816406 226.648438 "/>
<path fill-rule="nonzero" fill="rgb(90.196079%, 62.352943%, 0%)" fill-opacity="1" d="M 100.355469 221.363281 C 100.355469 217.132812 94.007812 217.132812 94.007812 221.363281 C 94.007812 225.59375 100.355469 225.59375 100.355469 221.363281 Z M 100.355469 221.363281 "/>
<path fill-rule="nonzero" fill="rgb(90.196079%, 62.352943%, 0%)" fill-opacity="1" d="M 332.171875 235.695312 C 332.171875 231.464844 325.828125 231.464844 325.828125 235.695312 C 325.828125 239.925781 332.171875 239.925781 332.171875 235.695312 Z M 332.171875 235.695312 "/>
<path fill-rule="nonzero" fill="rgb(90.196079%, 62.352943%, 0%)" fill-opacity="1" d="M 563.992188 226.648438 C 563.992188 222.417969 557.644531 222.417969 557.644531 226.648438 C 557.644531 230.878906 563.992188 230.878906 563.992188 226.648438 Z M 563.992188 226.648438 "/>
<g clip-path="url(#clip-1-679d20ac)">
<path fill="none" stroke-width="1.5" stroke-linecap="butt" stroke-linejoin="miter" stroke="rgb(90.196079%, 62.352943%, 0%)" stroke-opacity="1" stroke-dasharray="4.5 4.5" stroke-miterlimit="1.154701" d="M 74 229.179688 L 584 229.179688 "/>
</g>
<path fill="none" stroke-width="1.5" stroke-linecap="butt" stroke-linejoin="miter" stroke="rgb(0%, 61.960787%, 45.09804%)" stroke-opacity="1" stroke-miterlimit="2" d="M 97.183594 139.160156 L 329 141.835938 L 560.816406 139.582031 "/>
<path fill-rule="nonzero" fill="rgb(0%, 61.960787%, 45.09804%)" fill-opacity="1" d="M 100.355469 139.160156 C 100.355469 134.929688 94.007812 134.929688 94.007812 139.160156 C 94.007812 143.390625 100.355469 143.390625 100.355469 139.160156 Z M 100.355469 139.160156 "/>
<path fill-rule="nonzero" fill="rgb(0%, 61.960787%, 45.09804%)" fill-opacity="1" d="M 332.171875 141.835938 C 332.171875 137.605469 325.828125 137.605469 325.828125 141.835938 C 325.828125 146.066406 332.171875 146.066406 332.171875 141.835938 Z M 332.171875 141.835938 "/>
<path fill-rule="nonzero" fill="rgb(0%, 61.960787%, 45.09804%)" fill-opacity="1" d="M 563.992188 139.582031 C 563.992188 135.351562 557.644531 135.351562 557.644531 139.582031 C 557.644531 143.8125 563.992188 143.8125 563.992188 139.582031 Z M 563.992188 139.582031 "/>
<g clip-path="url(#clip-2-679d20ac)">
<path fill="none" stroke-width="1.5" stroke-linecap="butt" stroke-linejoin="miter" stroke="rgb(0%, 61.960787%, 45.09804%)" stroke-opacity="1" stroke-dasharray="4.5 4.5" stroke-miterlimit="1.154701" d="M 74 138.589844 L 584 138.589844 "/>
</g>
<path fill="none" stroke-width="1.5" stroke-linecap="butt" stroke-linejoin="miter" stroke="rgb(80.000001%, 47.450981%, 65.490198%)" stroke-opacity="1" stroke-miterlimit="2" d="M 97.183594 58.101562 L 329 57.511719 L 560.816406 57.078125 "/>
<path fill-rule="nonzero" fill="rgb(80.000001%, 47.450981%, 65.490198%)" fill-opacity="1" d="M 100.355469 58.101562 C 100.355469 53.871094 94.007812 53.871094 94.007812 58.101562 C 94.007812 62.332031 100.355469 62.332031 100.355469 58.101562 Z M 100.355469 58.101562 "/>
<path fill-rule="nonzero" fill="rgb(80.000001%, 47.450981%, 65.490198%)" fill-opacity="1" d="M 332.171875 57.511719 C 332.171875 53.28125 325.828125 53.28125 325.828125 57.511719 C 325.828125 61.742188 332.171875 61.742188 332.171875 57.511719 Z M 332.171875 57.511719 "/>
<path fill-rule="nonzero" fill="rgb(80.000001%, 47.450981%, 65.490198%)" fill-opacity="1" d="M 563.992188 57.078125 C 563.992188 52.851562 557.644531 52.851562 557.644531 57.078125 C 557.644531 61.308594 563.992188 61.308594 563.992188 57.078125 Z M 563.992188 57.078125 "/>
<g clip-path="url(#clip-3-679d20ac)">
<path fill="none" stroke-width="1.5" stroke-linecap="butt" stroke-linejoin="miter" stroke="rgb(80.000001%, 47.450981%, 65.490198%)" stroke-opacity="1" stroke-dasharray="4.5 4.5" stroke-miterlimit="1.154701" d="M 74 56.183594 L 584 56.183594 "/>
</g>
<path fill-rule="nonzero" fill="rgb(100%, 100%, 100%)" fill-opacity="1" stroke-width="1" stroke-linecap="butt" stroke-linejoin="miter" stroke="rgb(0%, 0%, 0%)" stroke-opacity="1" stroke-miterlimit="2" d="M 484 390 L 578 390 L 578 289 L 484 289 Z M 484 390 "/>
<path fill="none" stroke-width="1" stroke-linecap="butt" stroke-linejoin="miter" stroke="rgb(0%, 0%, 0%)" stroke-opacity="1" stroke-miterlimit="1.154701" d="M 97.183594 396.5 L 97.183594 401.5 "/>
<path fill="none" stroke-width="1" stroke-linecap="butt" stroke-linejoin="miter" stroke="rgb(0%, 0%, 0%)" stroke-opacity="1" stroke-miterlimit="1.154701" d="M 213.089844 396.5 L 213.089844 401.5 "/>
<path fill="none" stroke-width="1" stroke-linecap="butt" stroke-linejoin="miter" stroke="rgb(0%, 0%, 0%)" stroke-opacity="1" stroke-miterlimit="1.154701" d="M 329 396.5 L 329 401.5 "/>
<path fill="none" stroke-width="1" stroke-linecap="butt" stroke-linejoin="miter" stroke="rgb(0%, 0%, 0%)" stroke-opacity="1" stroke-miterlimit="1.154701" d="M 444.910156 396.5 L 444.910156 401.5 "/>
<path fill="none" stroke-width="1" stroke-linecap="butt" stroke-linejoin="miter" stroke="rgb(0%, 0%, 0%)" stroke-opacity="1" stroke-miterlimit="1.154701" d="M 560.816406 396.5 L 560.816406 401.5 "/>
<path fill="none" stroke-width="1" stroke-linecap="butt" stroke-linejoin="miter" stroke="rgb(0%, 0%, 0%)" stroke-opacity="1" stroke-miterlimit="1.154701" d="M 73.5 348.210938 L 68.5 348.210938 "/>
<path fill="none" stroke-width="1" stroke-linecap="butt" stroke-linejoin="miter" stroke="rgb(0%, 0%, 0%)" stroke-opacity="1" stroke-miterlimit="1.154701" d="M 73.5 281.269531 L 68.5 281.269531 "/>
<path fill="none" stroke-width="1" stroke-linecap="butt" stroke-linejoin="miter" stroke="rgb(0%, 0%, 0%)" stroke-opacity="1" stroke-miterlimit="1.154701" d="M 73.5 214.324219 L 68.5 214.324219 "/>
<path fill="none" stroke-width="1" stroke-linecap="butt" stroke-linejoin="miter" stroke="rgb(0%, 0%, 0%)" stroke-opacity="1" stroke-miterlimit="1.154701" d="M 73.5 147.382812 L 68.5 147.382812 "/>
<path fill="none" stroke-width="1" stroke-linecap="butt" stroke-linejoin="miter" stroke="rgb(0%, 0%, 0%)" stroke-opacity="1" stroke-miterlimit="1.154701" d="M 73.5 80.4375 L 68.5 80.4375 "/>
<path fill="none" stroke-width="1.5" stroke-linecap="butt" stroke-linejoin="miter" stroke="rgb(0%, 44.705883%, 69.803923%)" stroke-opacity="1" stroke-miterlimit="2" d="M 489.988281 305 L 509.988281 305 "/>
<path fill-rule="nonzero" fill="rgb(0%, 44.705883%, 69.803923%)" fill-opacity="1" d="M 503.160156 305 C 503.160156 300.769531 496.816406 300.769531 496.816406 305 C 496.816406 309.230469 503.160156 309.230469 503.160156 305 Z M 503.160156 305 "/>
<path fill="none" stroke-width="1.5" stroke-linecap="butt" stroke-linejoin="miter" stroke="rgb(90.196079%, 62.352943%, 0%)" stroke-opacity="1" stroke-miterlimit="2" d="M 489.988281 328 L 509.988281 328 "/>
<path fill-rule="nonzero" fill="rgb(90.196079%, 62.352943%, 0%)" fill-opacity="1" d="M 503.160156 328 C 503.160156 323.769531 496.816406 323.769531 496.816406 328 C 496.816406 332.230469 503.160156 332.230469 503.160156 328 Z M 503.160156 328 "/>
<path fill="none" stroke-width="1.5" stroke-linecap="butt" stroke-linejoin="miter" stroke="rgb(0%, 61.960787%, 45.09804%)" stroke-opacity="1" stroke-miterlimit="2" d="M 489.988281 351 L 509.988281 351 "/>
<path fill-rule="nonzero" fill="rgb(0%, 61.960787%, 45.09804%)" fill-opacity="1" d="M 503.160156 351 C 503.160156 346.769531 496.816406 346.769531 496.816406 351 C 496.816406 355.230469 503.160156 355.230469 503.160156 351 Z M 503.160156 351 "/>
<path fill="none" stroke-width="1.5" stroke-linecap="butt" stroke-linejoin="miter" stroke="rgb(80.000001%, 47.450981%, 65.490198%)" stroke-opacity="1" stroke-miterlimit="2" d="M 489.988281 374 L 509.988281 374 "/>
<path fill-rule="nonzero" fill="rgb(80.000001%, 47.450981%, 65.490198%)" fill-opacity="1" d="M 503.160156 374 C 503.160156 369.769531 496.816406 369.769531 496.816406 374 C 496.816406 378.230469 503.160156 378.230469 503.160156 374 Z M 503.160156 374 "/>
<g fill="rgb(0%, 0%, 0%)" fill-opacity="1">
<use xlink:href="#glyph-0-1-679d20ac" x="514.988755" y="308.891997"/>
</g>
<g fill="rgb(0%, 0%, 0%)" fill-opacity="1">
<use xlink:href="#glyph-1-9-679d20ac" x="526.916755" y="308.891997"/>
</g>
<g fill="rgb(0%, 0%, 0%)" fill-opacity="1">
<use xlink:href="#glyph-0-2-679d20ac" x="532.642755" y="308.891997"/>
</g>
<g fill="rgb(0%, 0%, 0%)" fill-opacity="1">
<use xlink:href="#glyph-1-10-679d20ac" x="540.427271" y="308.891997"/>
<use xlink:href="#glyph-1-3-679d20ac" x="554.119272" y="308.891997"/>
<use xlink:href="#glyph-1-6-679d20ac" x="561.119272" y="308.891997"/>
<use xlink:href="#glyph-1-3-679d20ac" x="565.011271" y="308.891997"/>
</g>
<g fill="rgb(0%, 0%, 0%)" fill-opacity="1">
<use xlink:href="#glyph-0-1-679d20ac" x="514.988755" y="331.891997"/>
</g>
<g fill="rgb(0%, 0%, 0%)" fill-opacity="1">
<use xlink:href="#glyph-1-9-679d20ac" x="526.916755" y="331.891997"/>
</g>
<g fill="rgb(0%, 0%, 0%)" fill-opacity="1">
<use xlink:href="#glyph-0-2-679d20ac" x="532.642755" y="331.891997"/>
</g>
<g fill="rgb(0%, 0%, 0%)" fill-opacity="1">
<use xlink:href="#glyph-1-10-679d20ac" x="540.427271" y="331.891997"/>
<use xlink:href="#glyph-1-4-679d20ac" x="554.119272" y="331.891997"/>
<use xlink:href="#glyph-1-6-679d20ac" x="561.119272" y="331.891997"/>
<use xlink:href="#glyph-1-3-679d20ac" x="565.011271" y="331.891997"/>
</g>
<g fill="rgb(0%, 0%, 0%)" fill-opacity="1">
<use xlink:href="#glyph-0-1-679d20ac" x="514.988755" y="354.891998"/>
</g>
<g fill="rgb(0%, 0%, 0%)" fill-opacity="1">
<use xlink:href="#glyph-1-9-679d20ac" x="526.916755" y="354.891998"/>
</g>
<g fill="rgb(0%, 0%, 0%)" fill-opacity="1">
<use xlink:href="#glyph-0-2-679d20ac" x="532.642755" y="354.891998"/>
</g>
<g fill="rgb(0%, 0%, 0%)" fill-opacity="1">
<use xlink:href="#glyph-1-10-679d20ac" x="540.427271" y="354.891998"/>
<use xlink:href="#glyph-1-8-679d20ac" x="554.119272" y="354.891998"/>
<use xlink:href="#glyph-1-6-679d20ac" x="561.119272" y="354.891998"/>
<use xlink:href="#glyph-1-3-679d20ac" x="565.011271" y="354.891998"/>
</g>
<g fill="rgb(0%, 0%, 0%)" fill-opacity="1">
<use xlink:href="#glyph-0-1-679d20ac" x="514.988755" y="377.891998"/>
</g>
<g fill="rgb(0%, 0%, 0%)" fill-opacity="1">
<use xlink:href="#glyph-1-9-679d20ac" x="526.916755" y="377.891998"/>
</g>
<g fill="rgb(0%, 0%, 0%)" fill-opacity="1">
<use xlink:href="#glyph-0-2-679d20ac" x="532.642755" y="377.891998"/>
</g>
<g fill="rgb(0%, 0%, 0%)" fill-opacity="1">
<use xlink:href="#glyph-1-10-679d20ac" x="540.427271" y="377.891998"/>
<use xlink:href="#glyph-1-0-679d20ac" x="554.119272" y="377.891998"/>
<use xlink:href="#glyph-1-6-679d20ac" x="561.119272" y="377.891998"/>
<use xlink:href="#glyph-1-3-679d20ac" x="565.011271" y="377.891998"/>
</g>
<path fill="none" stroke-width="1" stroke-linecap="butt" stroke-linejoin="miter" stroke="rgb(0%, 0%, 0%)" stroke-opacity="1" stroke-miterlimit="1.154701" d="M 73.5 396 L 584.5 396 "/>
<path fill="none" stroke-width="1" stroke-linecap="butt" stroke-linejoin="miter" stroke="rgb(0%, 0%, 0%)" stroke-opacity="1" stroke-miterlimit="1.154701" d="M 74 396.5 L 74 39.5 "/>
<path fill="none" stroke-width="1" stroke-linecap="butt" stroke-linejoin="miter" stroke="rgb(0%, 0%, 0%)" stroke-opacity="1" stroke-miterlimit="1.154701" d="M 73.5 40 L 584.5 40 "/>
<path fill="none" stroke-width="1" stroke-linecap="butt" stroke-linejoin="miter" stroke="rgb(0%, 0%, 0%)" stroke-opacity="1" stroke-miterlimit="1.154701" d="M 584 396.5 L 584 39.5 "/>
</svg>
